<mxfile host="Electron" modified="2024-06-26T05:04:27.116Z" agent="Mozilla/5.0 (Windows NT 10.0; Win64; x64) AppleWebKit/537.36 (KHTML, like Gecko) draw.io/24.5.3 Chrome/124.0.6367.207 Electron/30.0.6 Safari/537.36" etag="GLVlrcmojiR18G1k8prx" version="24.5.3" type="device">
  <diagram id="FrwfVXoslgxaiHvmfBSZ" name="第 1 页">
    <mxGraphModel dx="1100" dy="833" grid="1" gridSize="10" guides="1" tooltips="1" connect="1" arrows="1" fold="1" page="1" pageScale="1" pageWidth="827" pageHeight="1169" math="0" shadow="0">
      <root>
        <mxCell id="0" />
        <mxCell id="1" parent="0" />
        <mxCell id="6icutvDndaF-_Th6cAEb-1" value="" style="rounded=1;whiteSpace=wrap;html=1;fillColor=#5D1006;strokeColor=default;fontColor=#000000;fontFamily=Comic Sans MS;opacity=90;dashed=1;" parent="1" vertex="1">
          <mxGeometry x="40" y="290" width="280" height="130" as="geometry" />
        </mxCell>
        <mxCell id="6icutvDndaF-_Th6cAEb-2" value="" style="rounded=1;whiteSpace=wrap;html=1;fillColor=#Bc0112;fontColor=#ffffff;strokeColor=default;fontFamily=Comic Sans MS;opacity=90;dashed=1;" parent="1" vertex="1">
          <mxGeometry x="134" y="300" width="280" height="130" as="geometry" />
        </mxCell>
        <mxCell id="6icutvDndaF-_Th6cAEb-3" value="" style="rounded=1;whiteSpace=wrap;html=1;fillColor=#F24729;fontColor=#ffffff;strokeColor=default;fontFamily=Comic Sans MS;opacity=90;dashed=1;" parent="1" vertex="1">
          <mxGeometry x="230" y="310" width="280" height="130" as="geometry" />
        </mxCell>
        <mxCell id="6icutvDndaF-_Th6cAEb-5" value="k * t" style="text;html=1;align=center;verticalAlign=middle;resizable=0;points=[];autosize=1;strokeColor=default;fillColor=none;fontFamily=Comic Sans MS;rounded=1;opacity=80;dashed=1;" parent="1" vertex="1">
          <mxGeometry x="20" y="240" width="50" height="30" as="geometry" />
        </mxCell>
        <mxCell id="hlcne63-K25kAXhjywtL-5" style="edgeStyle=orthogonalEdgeStyle;rounded=0;orthogonalLoop=1;jettySize=auto;html=1;labelBackgroundColor=none;fontColor=#FFFFFF;" edge="1" parent="1" source="6icutvDndaF-_Th6cAEb-6" target="6icutvDndaF-_Th6cAEb-3">
          <mxGeometry relative="1" as="geometry">
            <Array as="points">
              <mxPoint x="370" y="340" />
              <mxPoint x="415" y="340" />
              <mxPoint x="415" y="410" />
            </Array>
          </mxGeometry>
        </mxCell>
        <mxCell id="6icutvDndaF-_Th6cAEb-6" value="m * t" style="text;html=1;align=center;verticalAlign=middle;resizable=0;points=[];autosize=1;strokeColor=none;fillColor=none;fontFamily=Comic Sans MS;rounded=1;opacity=80;dashed=1;labelBackgroundColor=none;fontColor=#FFFFFF;" parent="1" vertex="1">
          <mxGeometry x="349" y="360" width="50" height="30" as="geometry" />
        </mxCell>
        <mxCell id="6icutvDndaF-_Th6cAEb-7" value="（k+1) * t" style="text;html=1;align=center;verticalAlign=middle;resizable=0;points=[];autosize=1;strokeColor=default;fillColor=none;fontFamily=Comic Sans MS;rounded=1;opacity=80;dashed=1;" parent="1" vertex="1">
          <mxGeometry x="100" y="240" width="80" height="30" as="geometry" />
        </mxCell>
        <mxCell id="6icutvDndaF-_Th6cAEb-9" value="&lt;font color=&quot;#ffffff&quot;&gt;order_j&lt;/font&gt;" style="rounded=1;whiteSpace=wrap;html=1;fillColor=#5D1006;strokeColor=default;fontColor=#000000;fontFamily=Comic Sans MS;opacity=90;dashed=1;" parent="1" vertex="1">
          <mxGeometry x="60" y="535" width="120" height="20" as="geometry" />
        </mxCell>
        <mxCell id="6icutvDndaF-_Th6cAEb-10" value="&lt;font color=&quot;#ffffff&quot;&gt;order_i&lt;/font&gt;" style="rounded=1;whiteSpace=wrap;html=1;fillColor=#5D1006;strokeColor=default;fontColor=#000000;fontFamily=Comic Sans MS;opacity=90;dashed=1;" parent="1" vertex="1">
          <mxGeometry x="80" y="497" width="100" height="20" as="geometry" />
        </mxCell>
        <mxCell id="6icutvDndaF-_Th6cAEb-12" value="order_l" style="rounded=1;whiteSpace=wrap;html=1;fillColor=#BC0112;strokeColor=default;fontColor=#ffffff;fontFamily=Comic Sans MS;opacity=90;dashed=1;" parent="1" vertex="1">
          <mxGeometry x="349" y="497" width="130" height="20" as="geometry" />
        </mxCell>
        <mxCell id="6icutvDndaF-_Th6cAEb-13" value="order_k" style="rounded=1;whiteSpace=wrap;html=1;fillColor=#BC0112;strokeColor=default;fontColor=#ffffff;fontFamily=Comic Sans MS;opacity=90;dashed=1;" parent="1" vertex="1">
          <mxGeometry x="360" y="535" width="250" height="20" as="geometry" />
        </mxCell>
        <mxCell id="6icutvDndaF-_Th6cAEb-14" value="order_m" style="rounded=1;whiteSpace=wrap;html=1;fillColor=#F24729;strokeColor=default;fontColor=#ffffff;fontFamily=Comic Sans MS;opacity=90;dashed=1;" parent="1" vertex="1">
          <mxGeometry x="460" y="457" width="50" height="20" as="geometry" />
        </mxCell>
        <mxCell id="6icutvDndaF-_Th6cAEb-15" value="order_a" style="rounded=1;whiteSpace=wrap;html=1;fillColor=#5D1006;strokeColor=default;fontColor=#ffffff;fontFamily=Comic Sans MS;opacity=90;dashed=1;" parent="1" vertex="1">
          <mxGeometry x="211.5" y="535" width="125" height="20" as="geometry" />
        </mxCell>
        <mxCell id="6icutvDndaF-_Th6cAEb-17" value="order_n" style="rounded=1;whiteSpace=wrap;html=1;fillColor=#F24729;strokeColor=default;fontColor=#ffffff;fontFamily=Comic Sans MS;opacity=90;dashed=1;" parent="1" vertex="1">
          <mxGeometry x="505" y="497" width="115" height="20" as="geometry" />
        </mxCell>
        <mxCell id="6icutvDndaF-_Th6cAEb-18" value="&lt;font color=&quot;#ffffff&quot;&gt;order_b&lt;/font&gt;" style="rounded=1;whiteSpace=wrap;html=1;fillColor=#5D1006;strokeColor=default;fontColor=#000000;fontFamily=Comic Sans MS;opacity=90;dashed=1;" parent="1" vertex="1">
          <mxGeometry x="60" y="457" width="380" height="20" as="geometry" />
        </mxCell>
        <mxCell id="hlcne63-K25kAXhjywtL-6" value="" style="endArrow=none;dashed=1;html=1;dashPattern=1 3;strokeWidth=2;rounded=0;entryX=1;entryY=0.5;entryDx=0;entryDy=0;exitX=1.22;exitY=0.5;exitDx=0;exitDy=0;exitPerimeter=0;labelBackgroundColor=none;fontColor=#FFFFFF;" edge="1" parent="1" source="6icutvDndaF-_Th6cAEb-6" target="6icutvDndaF-_Th6cAEb-3">
          <mxGeometry width="50" height="50" relative="1" as="geometry">
            <mxPoint x="440" y="370" as="sourcePoint" />
            <mxPoint x="440" y="400" as="targetPoint" />
          </mxGeometry>
        </mxCell>
        <mxCell id="hlcne63-K25kAXhjywtL-7" value="" style="endArrow=none;dashed=1;html=1;dashPattern=1 3;strokeWidth=2;rounded=0;exitX=0;exitY=0.5;exitDx=0;exitDy=0;entryX=-0.033;entryY=0.533;entryDx=0;entryDy=0;entryPerimeter=0;labelBackgroundColor=none;fontColor=#FFFFFF;" edge="1" parent="1" source="6icutvDndaF-_Th6cAEb-3" target="6icutvDndaF-_Th6cAEb-6">
          <mxGeometry width="50" height="50" relative="1" as="geometry">
            <mxPoint x="420" y="385" as="sourcePoint" />
            <mxPoint x="340" y="370" as="targetPoint" />
          </mxGeometry>
        </mxCell>
        <mxCell id="hlcne63-K25kAXhjywtL-8" value="（k+2) * t" style="text;html=1;align=center;verticalAlign=middle;resizable=0;points=[];autosize=1;strokeColor=default;fillColor=none;fontFamily=Comic Sans MS;rounded=1;opacity=80;dashed=1;" vertex="1" parent="1">
          <mxGeometry x="200" y="240" width="80" height="30" as="geometry" />
        </mxCell>
        <mxCell id="hlcne63-K25kAXhjywtL-10" value="dealing window" style="text;html=1;align=center;verticalAlign=middle;resizable=0;points=[];autosize=1;strokeColor=none;fillColor=none;fontFamily=Comic Sans MS;rounded=1;opacity=80;dashed=1;labelBackgroundColor=none;fontColor=#FFFFFF;" vertex="1" parent="1">
          <mxGeometry x="30" y="340" width="110" height="30" as="geometry" />
        </mxCell>
        <mxCell id="hlcne63-K25kAXhjywtL-13" value="dealing window" style="text;html=1;align=center;verticalAlign=middle;resizable=0;points=[];autosize=1;strokeColor=none;fillColor=none;fontFamily=Comic Sans MS;rounded=1;opacity=80;dashed=1;labelBackgroundColor=none;fontColor=#FFFFFF;" vertex="1" parent="1">
          <mxGeometry x="125" y="350" width="110" height="30" as="geometry" />
        </mxCell>
        <mxCell id="hlcne63-K25kAXhjywtL-14" value="dealing window" style="text;html=1;align=center;verticalAlign=middle;resizable=0;points=[];autosize=1;strokeColor=none;fillColor=none;fontFamily=Comic Sans MS;rounded=1;opacity=80;dashed=1;labelBackgroundColor=none;fontColor=#FFFFFF;" vertex="1" parent="1">
          <mxGeometry x="230" y="340" width="110" height="30" as="geometry" />
        </mxCell>
        <mxCell id="hlcne63-K25kAXhjywtL-15" value="order_a" style="rounded=1;whiteSpace=wrap;html=1;fillColor=#5D1006;strokeColor=default;fontColor=#ffffff;fontFamily=Comic Sans MS;opacity=90;dashed=1;" vertex="1" parent="1">
          <mxGeometry x="195" y="497" width="125" height="20" as="geometry" />
        </mxCell>
      </root>
    </mxGraphModel>
  </diagram>
</mxfile>
